<svg width="11.000793" height="14.577698" viewBox="0 0 11.0008 14.5777" fill="none" xmlns="http://www.w3.org/2000/svg" xmlns:xlink="http://www.w3.org/1999/xlink">
	<desc>
			Created with Pixso.
	</desc>
	<defs/>
	<path id="Vector" d="M10.46 3.16C10.06 2.27 9.43 1.51 8.63 0.95C7.83 0.4 6.89 0.07 5.92 0.01C5.64 -0.01 5.35 -0.01 5.07 0.01C4.1 0.07 3.16 0.4 2.36 0.95C1.56 1.51 0.93 2.27 0.53 3.16C0.1 4.08 -0.08 5.1 0.02 6.12C0.12 7.13 0.49 8.1 1.09 8.92L5.07 14.36C5.12 14.43 5.19 14.48 5.26 14.52C5.33 14.55 5.41 14.57 5.5 14.57C5.58 14.57 5.66 14.55 5.73 14.52C5.81 14.48 5.87 14.43 5.92 14.36L9.91 8.92C10.5 8.1 10.87 7.13 10.97 6.12C11.07 5.1 10.89 4.08 10.46 3.16ZM5.5 7.15C5.16 7.15 4.84 7.05 4.56 6.86C4.28 6.68 4.07 6.41 3.94 6.11C3.81 5.8 3.78 5.46 3.84 5.13C3.91 4.81 4.07 4.51 4.3 4.27C4.54 4.04 4.84 3.87 5.17 3.81C5.49 3.74 5.83 3.78 6.14 3.91C6.45 4.03 6.71 4.25 6.9 4.53C7.08 4.8 7.18 5.13 7.18 5.46C7.18 5.68 7.14 5.9 7.05 6.11C6.97 6.31 6.84 6.5 6.69 6.65C6.53 6.81 6.34 6.93 6.14 7.02C5.94 7.1 5.72 7.15 5.5 7.15Z" fill="#030A1B" fill-opacity="1.000000" fill-rule="nonzero"/>
</svg>
